<svg fill="#2563EB" id="Capa_1" enable-background="new 0 0 512 512" height="512" viewBox="0 0 512 512" width="512" xmlns="http://www.w3.org/2000/svg"><g><path d="m150.78 423.34c-28.321-31.411-41.326-77.313-32.67-120-22.27 0-97.19 0-118.11 0v135h166.24c-5.53-4.59-10.7-9.61-15.46-15z"/><path d="m393.89 303.34c10.165 50.189-9.37 103.288-48.13 135h166.24v-135c-7.477 0-118.11 0-118.11 0z"/><path d="m355.69 131.34-18.39-60h-162.6l-18.39 60h-42.31v-10c0-19.33-15.67-35-35-35-19.358-.064-35.076 15.889-35 35.003v9.997h-44v142h127.59c49.308-110.797 207.559-110.731 256.82 0h127.59v-142zm-64.69 19.5h-70v-30h70zm171 60h-48v-30h48z"/><path d="m276.965 304.84c-3.853 0-7.475 1.5-10.199 4.225l-10.766 10.732-10.749-10.716c-2.741-2.741-6.363-4.241-10.216-4.241s-7.475 1.5-10.199 4.225c-5.624 5.624-5.624 14.774 0 20.398l31.164 31.163 31.164-31.164c5.624-5.624 5.624-14.774 0-20.398-2.725-2.724-6.347-4.224-10.199-4.224z"/><path d="m256 219.84c-110.665 1.282-151.438 143.588-59.619 203.5 34.035 23.092 85.204 23.096 119.239-.001 91.819-59.9 51.033-202.239-59.62-203.499zm52.377 130.836-52.377 52.377-52.377-52.377c-17.321-17.321-17.321-45.503 0-62.824 8.391-8.391 19.547-13.012 31.412-13.012 7.436 0 14.591 1.814 20.963 5.233 6.37-3.418 13.528-5.233 20.967-5.233 11.865 0 23.021 4.621 31.412 13.011 17.321 17.321 17.321 45.504 0 62.825z"/></g></svg>